Coordinates
nRows=261
nColumns=2
inDegrees=yes
endheader
time	ankle_angle_r	
2.79418	  9.689194	
2.82744	  9.681892	
2.8607	  9.681962	
2.89397	  9.684302	
2.92723	  9.680053	
2.9605	  9.673670	
2.99376	  9.672431	
3.02702	  9.672510	
3.06029	  9.670131	
3.09355	  9.667506	
3.12682	  9.667249	
3.16008	  9.671430	
3.19334	  9.678806	
3.22661	  9.685227	
3.25987	  9.690415	
3.29314	  9.694012	
3.3264	  9.692151	
3.35966	  9.685469	
3.39293	  9.676999	
3.42619	  9.669755	
3.45946	  9.673293	
3.49272	  9.689348	
3.52598	  9.700208	
3.55925	  9.695342	
3.59251	  9.683811	
3.62578	  9.671913	
3.65904	  9.661343	
3.6923	  9.660764	
3.72557	  9.677479	
3.75883	  9.709466	
3.7921	  9.744664	
3.82536	  9.766746	
3.85862	  9.771370	
3.89189	  9.764844	
3.92515	  9.751677	
3.95842	  9.738362	
3.99168	  9.732468	
4.02494	  9.733469	
4.05821	  9.733443	
4.09147	  9.727911	
4.12474	  9.727092	
4.158	  9.739793	
4.19126	  9.747838	
4.22453	  9.729279	
4.25779	  9.692073	
4.29106	  9.656215	
4.32432	  9.631655	
4.35758	  9.618884	
4.39085	  9.608168	
4.42411	  9.594030	
4.45738	  9.586098	
4.49064	  9.588931	
4.5239	  9.595802	
4.55717	  9.603281	
4.59043	  9.607558	
4.6237	  9.603163	
4.65696	  9.594222	
4.69022	  9.585990	
4.72349	  9.578160	
4.75675	  9.576760	
4.79002	  9.588123	
4.82328	  9.605378	
4.85654	  9.618659	
4.88981	  9.627428	
4.92307	  9.637971	
4.95634	  9.653490	
4.9896	  9.666883	
5.02286	  9.670583	
5.05613	  9.668654	
5.08939	  9.670667	
5.12266	  9.682552	
5.15592	  9.701689	
5.18918	  9.719819	
5.22245	  9.737185	
5.25571	  9.756213	
5.28898	  9.767045	
5.32224	  9.766182	
5.3555	  9.764836	
5.38877	  9.767614	
5.42203	  9.772506	
5.4553	  9.778735	
5.48856	  9.781071	
5.52182	  9.777786	
5.55509	  9.777453	
5.58835	  9.786662	
5.62162	  9.802231	
5.65488	  9.814274	
5.68814	  9.815138	
5.72141	  9.807622	
5.75467	  9.796778	
5.78794	  9.782632	
5.8212	  9.769887	
5.85446	  9.765434	
5.88773	  9.764233	
5.92099	  9.754374	
5.95426	  9.733098	
5.98752	  9.712576	
6.02078	  9.706063	
6.05405	  9.708936	
6.08731	  9.708227	
6.12058	  9.700617	
6.15384	  9.688590	
6.1871	  9.678414	
6.22037	  9.677592	
6.25363	  9.682246	
6.2869	  9.683062	
6.32016	  9.677505	
6.35342	  9.667487	
6.38669	  9.662153	
6.41995	  9.671331	
6.45322	  9.686372	
6.48648	  9.693744	
6.51974	  9.695363	
6.55301	  9.690687	
6.58627	  9.671506	
6.61954	  9.646673	
6.6528	  9.635198	
6.68606	  9.638886	
6.71933	  9.647050	
6.75259	  9.652894	
6.78586	  9.655039	
6.81912	  9.655381	
6.85238	  9.657195	
6.88565	  9.663495	
6.91891	  9.676292	
6.95218	  9.697120	
6.98544	  9.726689	
7.0187	  9.755413	
7.05197	  9.766485	
7.08523	  9.759829	
7.1185	  9.751227	
7.15176	  9.750506	
7.18502	  9.758283	
7.21829	  9.769683	
7.25155	  9.777994	
7.28482	  9.783167	
7.31808	  9.787708	
7.35134	  9.787924	
7.38461	  9.780290	
7.41787	  9.766982	
7.45114	  9.754134	
7.4844	  9.749924	
7.51766	  9.754165	
7.55093	  9.757565	
7.58419	  9.759163	
7.61746	  9.764703	
7.65072	  9.771856	
7.68398	  9.776952	
7.71725	  9.780203	
7.75051	  9.778906	
7.78378	  9.775086	
7.81704	  9.772900	
7.8503	  9.764636	
7.88357	  9.748014	
7.91683	  9.735126	
7.9501	  9.728158	
7.98336	  9.716904	
8.01662	  9.695021	
8.04989	  9.666331	
8.08315	  9.641681	
8.11642	  9.624284	
8.14968	  9.609972	
8.18294	  9.600056	
8.21621	  9.594179	
8.24947	  9.589690	
8.28274	  9.590109	
8.316	  9.594240	
8.34926	  9.594930	
8.38253	  9.590388	
8.41579	  9.581462	
8.44906	  9.573653	
8.48232	  9.576311	
8.51558	  9.584761	
8.54885	  9.587424	
8.58211	  9.587494	
8.61538	  9.591549	
8.64864	  9.598070	
8.6819	  9.607428	
8.71517	  9.620311	
8.74843	  9.634404	
8.7817	  9.650046	
8.81496	  9.667244	
8.84822	  9.685058	
8.88149	  9.705347	
8.91475	  9.725674	
8.94802	  9.737784	
8.98128	  9.738302	
9.01454	  9.728845	
9.04781	  9.712372	
9.08107	  9.696792	
9.11434	  9.690583	
9.1476	  9.696520	
9.18086	  9.711761	
9.21413	  9.729780	
9.24739	  9.745611	
9.28066	  9.755408	
9.31392	  9.757078	
9.34718	  9.759169	
9.38045	  9.769836	
9.41371	  9.779339	
9.44698	  9.775185	
9.48024	  9.756751	
9.5135	  9.728698	
9.54677	  9.703846	
9.58003	  9.696607	
9.6133	  9.702389	
9.64656	  9.706747	
9.67982	  9.704477	
9.71309	  9.698328	
9.74635	  9.694331	
9.77962	  9.691558	
9.81288	  9.680100	
9.84614	  9.662588	
9.87941	  9.652109	
9.91267	  9.648561	
9.94594	  9.644815	
9.9792	  9.639623	
10.0125	  9.633932	
10.0457	  9.629273	
10.079	  9.624962	
10.1123	  9.620001	
10.1455	  9.619245	
10.1788	  9.625248	
10.212	  9.634381	
10.2453	  9.642335	
10.2786	  9.643638	
10.3118	  9.640089	
10.3451	  9.643340	
10.3784	  9.655992	
10.4116	  9.671943	
10.4449	  9.690017	
10.4782	  9.707697	
10.5114	  9.720156	
10.5447	  9.726349	
10.578	  9.722124	
10.6112	  9.704314	
10.6445	  9.683083	
10.6777	  9.668723	
10.711	  9.659239	
10.7443	  9.655769	
10.7775	  9.663114	
10.8108	  9.674666	
10.8441	  9.681200	
10.8773	  9.681133	
10.9106	  9.678967	
10.9439	  9.683316	
10.9771	  9.697382	
11.0104	  9.715535	
11.0436	  9.729726	
11.0769	  9.734351	
11.1102	  9.732437	
11.1434	  9.733454	
11.1767	  9.744224	
11.21	  9.764884	
11.2432	  9.785280	
11.2765	  9.792078	
11.3098	  9.784943	
11.343	  9.772032	
11.3763	  9.759632	
11.4096	  9.760151	
11.4428	  9.780675	
